<?xml version="1.0" standalone="no"?>
<!DOCTYPE svg PUBLIC "-//W3C//DTD SVG 20010904//EN"
 "http://www.w3.org/TR/2001/REC-SVG-20010904/DTD/svg10.dtd">
<svg version="1.0" xmlns="http://www.w3.org/2000/svg"
 width="512.000000pt" height="512.000000pt" viewBox="0 0 512.000000 512.000000"
 preserveAspectRatio="xMidYMid meet">
<metadata>
Created by potrace 1.11, written by Peter Selinger 2001-2013
</metadata>
<g transform="translate(0.000000,512.000000) scale(0.100000,-0.100000)"
fill="#000000" stroke="none">
<path d="M2481 4869 c-82 -50 -122 -126 -164 -319 -31 -137 -40 -237 -41 -422
l-1 -137 -65 -16 c-142 -36 -325 -126 -457 -227 -90 -68 -132 -108 -207 -198
-164 -195 -258 -400 -300 -655 -13 -76 -15 -266 -13 -1250 l2 -1160 26 -56
c43 -90 127 -163 219 -188 34 -9 299 -11 1120 -9 1213 3 1105 -4 1197 85 31
31 57 68 70 103 l22 55 -1 1165 0 1165 -23 120 c-52 278 -174 506 -379 710
-164 164 -417 306 -621 349 l-30 6 -1 148 c0 81 -4 174 -7 207 -4 33 -10 80
-13 105 -8 66 -41 197 -66 260 -60 152 -170 218 -267 159z m122 -284 c16 -57
20 -76 33 -155 3 -19 7 -46 10 -60 10 -50 13 -350 3 -350 -62 -3 -180 0 -188
4 -7 4 -9 59 -6 149 6 198 15 273 47 386 11 41 27 89 36 108 l15 33 17 -28 c9
-15 24 -54 33 -87z"/>
</g>
</svg>
